<?xml version="1.0" encoding="UTF-8"?>
<svg width="2.0082in" height="1.7232in" version="1.1" viewBox="0 0 192.79 165.43" xmlns="http://www.w3.org/2000/svg">
    <g transform="translate(-230.05 -175.44)">
        <path d="m379.53 175.45c-2.8878 0.10165-5.4349 1.5047-9.8047 4.6953-3.9561 2.8886-4.607 3.8609-4.6602 6.9629-0.15129 8.8144-10.951 21.777-28.654 34.395-10.265 7.316-16.157 12.886-43.412 41.039-18.923 19.547-22.989 22.389-45.076 31.494-7.7466 3.1935-14.947 6.5866-16.002 7.541-2.1335 1.9308-2.4804 4.4629-0.83594 6.1074 0.77614 0.77614 0.72212 1.661-0.19336 3.127-1.6331 2.615 0.19804 7.1404 3.209 7.9277 1.5589 0.40767 1.9139 1.0856 1.4766 2.8281-0.83864 3.3414 1.9602 5.7647 5.8398 5.0566 4.1774-0.76243 47.638-22.447 54.885-27.385l5.8008-3.9531 9.1992 0.4668c7.7018 0.39024 10.097 0.12367 14.701-1.6406 7.0377-2.6969 8-2.6528 8 0.3789 0 1.3691 0.90027 4.8566 2 7.75 2.6211 6.8963 2.5587 7.2939-1.1719 7.5781-4.58 0.34898-11.828 3.797-11.828 5.627 0 1.9452 0.82118 1.9481 5.4512 0.0137 7.2242-3.0185 12.551-3.4592 16.465-1.3613 3.8387 2.0574 7.084 2.4875 7.084 0.93946 0-0.53065-0.93883-1.4662-2.0859-2.0801-2.6106-1.3972-2.0764-2.0711 1.0039-1.2656 1.706 0.44614 3.2371 2.5958 5.707 8.0156 1.8563 4.0734 3.375 7.78 3.375 8.2383s-1.5591 1.1269-3.4648 1.4844c-3.8286 0.71824-5.3045 2.2033-3.7422 3.7656 0.69179 0.69179 3.2448 0.44531 7.9531-0.76758l6.9336-1.7871 3.875 2.4316c2.1312 1.3367 6.141 3.6007 8.9102 5.0312 2.7692 1.4306 5.5977 2.6681 6.2852 2.75 2.5483 0.3037 1.141-3.487-2-5.3867l-3.25-1.9649 3.3438-0.32031c2.0285-0.19435 4.0254 0.2973 5.0781 1.25 1.9176 1.7354 5.0781 2.1147 5.0781 0.60937 0-2.6916-4.5328-5.0415-9.9394-5.1543-3.0588-0.0638-4.6606-0.33307-3.5606-0.59766 6.6858-1.6082 1.0579-4.648-7.5-4.0508-3.025 0.2111-6.1746 0.70042-7 1.0859-1.1107 0.51878-2.087-0.57709-3.7559-4.2148-1.2402-2.7033-2.0011-5.5759-1.6914-6.3828 0.31265-0.81476-0.13117-1.7326-0.99609-2.0644-2.2832-0.87615-1.8984-2.3322 0.5918-2.2402 3.7535 0.13869 3.2268-2.2598-0.65625-2.9883-3.163-0.59339-3.979-1.3804-6.2676-6.0469l-2.6309-5.3633 2.0547-2.7617c1.7927-2.4077 2.9369-2.8363 8.9531-3.3613 19.914-1.7378 32.911-14.073 38.941-36.957 1.4018-5.3194 1.5976-9.2509 1.1191-22.562-0.5489-15.271-0.46357-16.35 1.6289-20.443 2.0124-3.9369 2.7495-4.4713 8.2871-6.002 7.9754-2.2045 10.616-3.6899 10.223-5.752-0.30934-1.6224-4.5069-3.0112-13.914-4.6074-2.9675-0.50354-4.1585-1.4904-6.668-5.5273-3.7351-6.0085-9.2754-10.163-16.656-12.484-2.446-0.76935-4.3024-1.1762-6.0352-1.1152zm-0.20898 4.668c1.612-0.0607 3.4514 0.33388 6.0664 1.1152 4.7618 1.4228 12.08 8.2408 14.143 13.178 1.435 3.4343 4.1043 4.5918 10.598 4.5918 5.6485 0 2.7396 1.7473-4.875 2.9277-4.2625 0.6608-8.5375 1.4264-9.5 1.7031-1.3221 0.3801-1.75-0.0857-1.75-1.9082 0-5.0289-6.9509-7.6457-10.346-3.8945-3.622 4.0023-1.4045 8.1719 4.3457 8.1719 1.98 0 4.1408-0.53922 4.8008-1.1992 0.93333-0.93333 1.1992-0.84643 1.1992 0.39258 0 1.9492 2.0967 2.8553 4.9043 2.1211 2.5702-0.67212 2.571-0.58902 0.0957 5.1856-1.2982 3.0285-2 6.8883-2 10.998 0 8.0416-4.5888 20.537-10.104 27.514-4.3791 5.5399-4.55 5.9883-2.2969 5.9883 2.3004 0 7.1069-5.5029 10.434-11.943 2.5565-4.9495 2.8752-5.2447 2.918-2.7012 0.0826 4.9018-2.9588 14.886-6.4453 21.16-5.0785 9.1387-10.476 14.661-18.121 18.541l-6.7832 3.4434-17.051 0.0176c-14.269 0.015-17.575 0.302-20.262 1.7559-5.4466 2.9473-15.999 4.9127-22.709 4.2305l-6.0801-0.61721-12.5 7.1172c-6.875 3.9141-19.307 10.69-27.625 15.057-13.569 7.1237-17.375 8.7771-17.375 7.5527 0-0.53458 12.379-7.8006 18.75-11.006 3.062-1.5405 5.25-3.3121 5.25-4.25 0-2.4321-4.2026-1.2322-16.105 4.5977-10.763 5.2718-13.869 5.9864-15.82 3.6348-1.5502-1.8679-1.1482-2.0536 10.91-5.0371 12.054-2.9825 21.394-6.9379 20.752-8.7871-0.70516-2.0294-0.98826-1.9767-25.574 4.8984-2.9358 0.82096-5.5679 1.2622-5.8496 0.98047-1.2164-1.2164 1.1765-2.6264 7.9473-4.6856 27.001-8.2116 36.553-14.981 63.436-44.959 17.328-19.323 24.954-26.144 43.805-39.182 7.3288-5.0687 8.889-6.8797 14.076-16.346 2.7186-4.9611 5.4653-8.4437 8.25-10.461 2.296-1.6632 4.1738-3.485 4.1738-4.0488 0-1.9043-2.8232-2.1253-5.4199-0.42383-4.204 2.7546-2.8608 0.20725 1.4707-2.7891 2.4961-1.7267 4.195-2.5567 6.2676-2.6348zm11.025 18.006c0.41553 0.0634 0.97821 0.56119 1.7266 1.4629 0.92947 1.12 1.0174 2.0534 0.30078 3.1895-1.8711 2.9663-3.1802 2.4468-3.0762-1.2227 0.0691-2.4363 0.35628-3.5354 1.0488-3.4297zm-3.3184 18.898c-0.1528-8e-3 -0.30947-7e-3 -0.4668 4e-3 -0.75517 0.052-1.5381 0.3268-2.1094 0.85547-0.5225 0.48356-2.6367 1.419-4.6992 2.0781-2.0625 0.65909-3.75 1.8388-3.75 2.6211 0 0.7822 0.92452 1.4219 2.0547 1.4219 3.2326-9e-5 10.945-3.8936 10.945-5.5254 0-0.88006-0.90503-1.3975-1.9746-1.4551zm-1.4668 6.1836c-0.43103-0.0394-1.2558 0.49409-2.4805 1.7188-2.1249 2.1249-6.0781 9.305-6.0781 11.039 0 2.4203 1.8896 0.63806 5.7617-5.4356 2.7894-4.3753 3.7452-7.2357 2.7969-7.3223zm3.6914 0.80079c-0.60606 3e-3 -6.6692 10.668-8.1152 14.275-0.20084 0.50103 0.47416 0.75157 1.5 0.55468 3.31-0.6353 9.6484-14.845 6.6152-14.83zm4.1484 1.2891c-0.38897-0.039-0.67514 0.37237-0.98828 1.2891-1.6901 4.9476-6.8489 15.537-8.0586 16.541-0.74341 0.61697-1.3516 2.0035-1.3516 3.082 0 3.149 2.2123 1.6044 6.2051-4.334 4.403-6.5485 6.8196-14.247 5.0332-16.033-0.33653-0.33653-0.60646-0.52155-0.83984-0.54492zm-25.814 17.686c-0.63835 0.0115-2.0379 1.1442-3.4258 3.0215-2.7025 3.6553-4.1582 3.8303-4.1582 0.5 0-2.9538-1.5481-3.3381-2.2734-0.56445-0.70909 2.7115 1.9295 6.0644 4.7715 6.0644 1.3114 0 2.662 0.45 3.002 1s1.6036 1.0076 2.8086 1.0156c3.852 0.0269 5.0726 1.3925 3.6699 4.1074-1.5991 3.095-5.0633 6.877-6.2988 6.877-0.53444 0 0.21851-1.1044 1.6738-2.4531 2.4199-2.2427 3.4746-4.5469 2.0801-4.5469-0.3117 0-2.041 1.125-3.8438 2.5s-3.6336 2.5-4.0684 2.5 0.42567-0.95814 1.9141-2.1289c1.8549-1.459 2.383-2.453 1.6777-3.1582s-1.5131-0.62543-2.5703 0.25195c-1.3074 1.0851-1.543 0.95737-1.543-0.84179 0-2.8106-0.39335-2.723-6.3809 1.4199-4.0713 2.817-4.4538 2.9543-1.8691 0.67578 3.0993-2.7322 4.2362-5.2188 2.3867-5.2188-0.47437 0-2.5605 1.35-4.6367 3s-4.2229 3-4.7715 3c-0.54855 0 0.18992-0.93547 1.6426-2.0781 1.4526-1.1427 3.1075-2.9482 3.6777-4.0137 1.8279-3.4154-1.5629-3.3913-5.1504 0.0371-4.1884 4.0026-7.3953 4.8213-9.9258 2.5312-1.8665-1.6892-2.1972-1.6496-8.084 0.99219-3.3758 1.515-7.8812 2.9894-10.014 3.2754l-3.877 0.51953 0.625-3.1309c0.96541-4.827-1.785-3.9894-5.3086 1.6172-4.6744 7.4378-11.069 14.98-20.564 24.258-4.8125 4.7021-8.75 9.0997-8.75 9.7715 0 1.7888 2.4115 1.4956 6.8848-0.83594 3.8253-1.9938 7.0606-2.62 25.207-4.8828 8.332-1.039 19.269-4.2047 25.408-7.3535 1.65-0.8463 6.0124-1.9819 9.6934-2.5234 13.727-2.0195 25.943-10.585 29.801-20.896 2.4133-6.45 2.3215-10.615-0.24414-11.102-1.0423-0.19768-1.75 0.27968-1.75 1.1816 0 0.83287-0.49861 1.823-1.1074 2.1992-0.7696 0.47563-0.89713-0.26869-0.41992-2.4414 0.9094-4.1404-1.3459-4.2137-3.6758-0.11914-2.0228 3.5548-4.269 4.073-3.2266 0.74414 0.38754-1.2375 0.91546-2.8125 1.1738-3.5 0.33133-0.88166 0.22286-1.2784-0.16016-1.2715zm-7.9766 16.33c0.22279-2e-3 0.19949 0.19388-0.043 0.58594-0.372 0.60192-1.6045 1.5914-2.7402 2.1992-1.4795 0.79187-1.8733 0.79594-1.3887 0.0117 0.372-0.60192 1.6045-1.5914 2.7402-2.1992 0.73976-0.39594 1.2088-0.59593 1.4316-0.59766zm-26.553 0.41993c1.9105-0.0993 4.0956 1.0814 9.9453 4.2344 1.925 1.0376 6.5375 2.4118 10.25 3.0527 3.7125 0.64092 6.75 1.5412 6.75 2.002 0 1.0317-10.337 4.9824-13.037 4.9824-2.1045 0-2.6345-1.466-0.91406-2.5293 0.7157-0.44233 0.67358-1.1006-0.13281-2.0723-0.98841-1.191-1.9521-0.7034-5.8926 2.9824-7.6371 7.1436-14.923 9.9621-30.023 11.617-5.225 0.57268-10.962 1.3076-12.75 1.6328-1.9822 0.36061-3.25 0.18086-3.25-0.46094 0-1.9525 2.4708-2.6175 8.5781-2.3105 4.5074 0.22653 8.0778-0.36531 13.809-2.2891 13.562-4.5526 25.872-11.712 23.764-13.82-0.69261-0.69261-3.847 0.43504-9.8359 3.5195-10.161 5.2332-20.082 8.6967-25.529 8.9102-4.7233 0.18508-5.067-0.15586-2.9629-2.9453 1.4481-1.9198 2.14-2.1064 4.8945-1.3164 4.2056 1.2062 11.109-0.62435 21.941-5.8223 5.1329-2.4629 8.3418-4.5976 8.3418-5.5488 0-2.1583-0.72274-2.0057-9.3164 1.9648-7.6947 3.5552-19.684 5.8416-19.684 3.7539 0-2.1 3.5154-3.8016 10.182-4.9258 3.7811-0.63766 8.7298-2.077 10.998-3.1992 1.6807-0.83156 2.7287-1.3525 3.875-1.4121zm7.0469 30.477c0.3378-5e-3 0.72467 0.0512 1.1602 0.16797 1.2308 0.32989 3.2708 0.60528 4.5332 0.61328 2.0669 0.0123 2.2322 0.35264 1.6582 3.4121-0.44166 2.3543-0.0271 4.7778 1.3516 7.8945l1.9902 4.498-3.0215 0.60351c-5.1193 1.0238-5.3541 0.81985-7.7422-6.7949-2.2739-7.2506-2.2942-10.357 0.0703-10.395z"
              style="color-rendering:auto;color:#000000;dominant-baseline:auto;font-feature-settings:normal;font-variant-alternates:normal;font-variant-caps:normal;font-variant-east-asian:normal;font-variant-ligatures:normal;font-variant-numeric:normal;font-variant-position:normal;font-variation-settings:normal;image-rendering:auto;inline-size:0;isolation:auto;mix-blend-mode:normal;shape-margin:0;shape-padding:0;shape-rendering:auto;solid-color:#000000;stop-color:#000000;text-decoration-color:#000000;text-decoration-line:none;text-decoration-style:solid;text-indent:0;text-orientation:mixed;text-transform:none;white-space:normal"/>
    </g>
</svg>
