<?xml version="1.0" encoding="UTF-8" standalone="no"?>
<svg
   xmlns:dc="http://purl.org/dc/elements/1.1/"
   xmlns:cc="http://creativecommons.org/ns#"
   xmlns:rdf="http://www.w3.org/1999/02/22-rdf-syntax-ns#"
   xmlns:svg="http://www.w3.org/2000/svg"
   xmlns="http://www.w3.org/2000/svg"
   xmlns:sodipodi="http://sodipodi.sourceforge.net/DTD/sodipodi-0.dtd"
   xmlns:inkscape="http://www.inkscape.org/namespaces/inkscape"
   version="1.1"
   id="svg10"
   width="2.0082269in"
   height="1.7232034in"
   viewBox="0 0 192.78978 165.42753"
   sodipodi:docname="maison-alouette.svg"
   inkscape:version="1.0.2-2 (e86c870879, 2021-01-15)">
  <metadata
     id="metadata16">
    <rdf:RDF>
      <cc:Work
         rdf:about="">
        <dc:format>image/svg+xml</dc:format>
        <dc:type
           rdf:resource="http://purl.org/dc/dcmitype/StillImage" />
        <dc:title></dc:title>
      </cc:Work>
    </rdf:RDF>
  </metadata>
  <defs
     id="defs14" />
  <sodipodi:namedview
     pagecolor="#ffffff"
     bordercolor="#666666"
     borderopacity="1"
     objecttolerance="10"
     gridtolerance="10"
     guidetolerance="10"
     inkscape:pageopacity="0"
     inkscape:pageshadow="2"
     inkscape:window-width="1920"
     inkscape:window-height="1001"
     id="namedview12"
     showgrid="false"
     inkscape:zoom="1.296875"
     inkscape:cx="-63.879938"
     inkscape:cy="144.55873"
     inkscape:window-x="-9"
     inkscape:window-y="-9"
     inkscape:window-maximized="1"
     inkscape:current-layer="g18"
     units="in"
     inkscape:pagecheckerboard="true"
     fit-margin-top="0"
     fit-margin-left="0"
     fit-margin-right="0"
     fit-margin-bottom="0">
    <inkscape:grid
       type="xygrid"
       id="grid930"
       originx="-230.04862"
       originy="-175.4413" />
  </sodipodi:namedview>
  <g
     inkscape:groupmode="layer"
     inkscape:label="Image"
     id="g18"
     transform="translate(-230.04862,-175.44128)">
    <path
       id="path24"
       style="color:#000000;font-style:normal;font-variant:normal;font-weight:normal;font-stretch:normal;font-size:medium;line-height:normal;font-family:sans-serif;font-variant-ligatures:normal;font-variant-position:normal;font-variant-caps:normal;font-variant-numeric:normal;font-variant-alternates:normal;font-variant-east-asian:normal;font-feature-settings:normal;font-variation-settings:normal;text-indent:0;text-align:start;text-decoration:none;text-decoration-line:none;text-decoration-style:solid;text-decoration-color:#000000;letter-spacing:normal;word-spacing:normal;text-transform:none;writing-mode:lr-tb;direction:ltr;text-orientation:mixed;dominant-baseline:auto;baseline-shift:baseline;text-anchor:start;white-space:normal;shape-padding:0;shape-margin:0;inline-size:0;clip-rule:nonzero;display:inline;overflow:visible;visibility:visible;opacity:1;isolation:auto;mix-blend-mode:normal;color-interpolation:sRGB;color-interpolation-filters:linearRGB;solid-color:#000000;solid-opacity:1;vector-effect:none;fill:#ffffff;fill-opacity:1;fill-rule:nonzero;stroke:none;stroke-width:1;stroke-linecap:butt;stroke-linejoin:miter;stroke-miterlimit:4;stroke-dasharray:none;stroke-dashoffset:0;stroke-opacity:1;color-rendering:auto;image-rendering:auto;shape-rendering:auto;text-rendering:auto;enable-background:accumulate;stop-color:#000000;stop-opacity:1"
       d="m 379.52734,175.44727 c -2.88784,0.10165 -5.43486,1.50468 -9.80468,4.69531 -3.95612,2.88855 -4.60696,3.86088 -4.66016,6.96289 -0.15129,8.81436 -10.95062,21.77685 -28.6543,34.39453 -10.26493,7.31598 -16.15706,12.8855 -43.41211,41.03906 -18.92279,19.54663 -22.9891,22.3889 -45.07617,31.49414 -7.74665,3.19349 -14.94736,6.58664 -16.00195,7.54102 -2.13352,1.93081 -2.48045,4.46291 -0.83594,6.10742 0.77614,0.77614 0.72212,1.66103 -0.19336,3.12695 -1.63311,2.61501 0.19804,7.14036 3.20899,7.92774 1.55891,0.40767 1.91391,1.08561 1.47656,2.82812 -0.83864,3.34143 1.96024,5.76471 5.83984,5.05664 4.17739,-0.76243 47.63794,-22.44698 54.88477,-27.38476 l 5.80078,-3.95313 9.19922,0.4668 c 7.70181,0.39024 10.09707,0.12367 14.70117,-1.64062 7.03773,-2.69687 8,-2.65284 8,0.3789 0,1.3691 0.90027,4.8566 2,7.75 2.62113,6.89627 2.55872,7.29387 -1.17188,7.57813 C 330.24813,310.16539 323,313.61342 323,315.44336 c 0,1.94516 0.82118,1.94806 5.45117,0.0137 7.22421,-3.01847 12.55075,-3.45916 16.46485,-1.36133 3.83871,2.05743 7.08398,2.48751 7.08398,0.93946 0,-0.53065 -0.93883,-1.46616 -2.08594,-2.08008 -2.61065,-1.39718 -2.07638,-2.07114 1.00391,-1.26563 1.70603,0.44614 3.23714,2.59582 5.70703,8.01563 1.85629,4.07336 3.375,7.77996 3.375,8.23828 0,0.45832 -1.55913,1.12686 -3.46484,1.48437 -3.82857,0.71824 -5.30452,2.2033 -3.74219,3.76563 0.69179,0.69179 3.24481,0.44531 7.95312,-0.76758 l 6.9336,-1.78711 3.875,2.43164 c 2.13125,1.33667 6.14101,3.60068 8.91015,5.03125 2.76915,1.43057 5.59766,2.6681 6.28516,2.75 2.54833,0.3037 1.14104,-3.48701 -2,-5.38672 L 381.5,333.5 l 3.34375,-0.32031 c 2.02847,-0.19435 4.0254,0.2973 5.07813,1.25 1.91764,1.73545 5.07812,2.11471 5.07812,0.60937 0,-2.69155 -4.53284,-5.04152 -9.93945,-5.15429 -3.05879,-0.0638 -4.66055,-0.33307 -3.56055,-0.59766 6.68584,-1.60815 1.05793,-4.64801 -7.5,-4.05078 -3.025,0.2111 -6.17464,0.70042 -7,1.08594 -1.11067,0.51878 -2.087,-0.57709 -3.75586,-4.21485 -1.24017,-2.70332 -2.00106,-5.57588 -1.69141,-6.38281 0.31265,-0.81476 -0.13117,-1.73255 -0.99609,-2.06445 -2.28319,-0.87615 -1.89841,-2.33224 0.5918,-2.24024 3.75346,0.13869 3.22682,-2.25982 -0.65625,-2.98828 -3.16303,-0.59339 -3.97895,-1.38045 -6.26758,-6.04687 l -2.63086,-5.36329 2.05469,-2.76171 c 1.79266,-2.40774 2.93692,-2.83632 8.95312,-3.36133 19.91412,-1.73782 32.91085,-14.07283 38.94141,-36.95703 1.40178,-5.31937 1.5976,-9.25086 1.11914,-22.5625 -0.5489,-15.27136 -0.46357,-16.34975 1.62891,-20.44336 2.0124,-3.93694 2.74953,-4.47133 8.2871,-6.00196 7.9754,-2.20447 10.61582,-3.68989 10.22266,-5.75195 -0.30934,-1.6224 -4.5069,-3.01117 -13.91406,-4.60742 -2.96752,-0.50354 -4.15847,-1.49045 -6.66797,-5.52734 -3.73508,-6.00848 -9.27539,-10.16282 -16.65625,-12.48438 -2.44595,-0.76935 -4.30245,-1.17623 -6.03516,-1.11523 z m -0.20898,4.66796 c 1.612,-0.0607 3.45137,0.33388 6.06641,1.11524 4.76179,1.42278 12.07979,8.24079 14.14257,13.17773 1.43497,3.43434 4.10428,4.5918 10.59766,4.5918 5.64852,0 2.73958,1.74727 -4.875,2.92773 -4.2625,0.6608 -8.5375,1.42641 -9.5,1.70313 -1.32209,0.3801 -1.75,-0.0857 -1.75,-1.9082 0,-5.02892 -6.95092,-7.64571 -10.3457,-3.89454 C 380.0323,201.83043 382.24983,206 388,206 c 1.98,0 4.14078,-0.53922 4.80078,-1.19922 0.93333,-0.93333 1.19922,-0.84643 1.19922,0.39258 0,1.94918 2.09673,2.8553 4.9043,2.12109 2.57023,-0.67212 2.57097,-0.58902 0.0957,5.18555 -1.29815,3.02846 -2,6.88833 -2,10.99805 0,8.04165 -4.5888,20.53702 -10.10352,27.51367 -4.37906,5.53992 -4.55002,5.98828 -2.29687,5.98828 2.30037,0 7.10692,-5.50293 10.43359,-11.94336 2.55654,-4.94948 2.87517,-5.2447 2.91797,-2.70117 0.0826,4.90185 -2.95882,14.88627 -6.44531,21.16015 -5.07848,9.13874 -10.47559,14.66132 -18.12109,18.54102 l -6.78321,3.44336 -17.05078,0.0176 c -14.26904,0.015 -17.57503,0.302 -20.26172,1.75586 -5.44659,2.94734 -15.99886,4.91274 -22.70898,4.23047 L 300.5,290.88672 288,298.00391 c -6.875,3.91411 -19.30652,10.6895 -27.625,15.05664 -13.5692,7.12372 -17.375,8.77707 -17.375,7.55273 0,-0.53458 12.37895,-7.80058 18.75,-11.00586 3.06197,-1.54048 5.25,-3.31207 5.25,-4.25 0,-2.43208 -4.20258,-1.2322 -16.10547,4.59766 -10.76345,5.27178 -13.86867,5.98635 -15.82031,3.63476 -1.55025,-1.86793 -1.14817,-2.05357 10.91016,-5.03711 12.05389,-2.98246 21.39449,-6.93788 20.75195,-8.78711 -0.70516,-2.02944 -0.98826,-1.97667 -25.57422,4.89844 -2.93583,0.82096 -5.56787,1.26222 -5.84961,0.98047 -1.21639,-1.21639 1.17646,-2.62642 7.94727,-4.68555 27.00126,-8.21158 36.5529,-14.98147 63.43554,-44.95898 17.32795,-19.32283 24.95424,-26.14448 43.80469,-39.18164 7.32879,-5.06867 8.88895,-6.87971 14.07617,-16.3457 2.71863,-4.96113 5.46532,-8.44373 8.25,-10.46094 2.29598,-1.6632 4.17383,-3.48502 4.17383,-4.04883 0,-1.90429 -2.82318,-2.12528 -5.41992,-0.42383 -4.20401,2.75457 -2.86076,0.20725 1.4707,-2.78906 2.49614,-1.72671 4.19501,-2.55667 6.26758,-2.63477 z m 11.02539,18.00586 c 0.41553,0.0634 0.97821,0.56119 1.72656,1.46289 0.92947,1.11995 1.01741,2.05337 0.30078,3.18946 -1.8711,2.96632 -3.18018,2.44678 -3.07617,-1.22266 0.0691,-2.43627 0.35628,-3.53541 1.04883,-3.42969 z m -3.31836,18.89844 c -0.1528,-0.008 -0.30947,-0.007 -0.4668,0.004 -0.75517,0.052 -1.53813,0.3268 -2.10937,0.85547 -0.5225,0.48356 -2.63672,1.41902 -4.69922,2.07812 -2.0625,0.65909 -3.75,1.83876 -3.75,2.62109 0,0.7822 0.92452,1.42188 2.05469,1.42188 C 381.2873,224 389,220.10648 389,218.4747 c 0,-0.88006 -0.90503,-1.39753 -1.97461,-1.45508 z m -1.4668,6.18359 c -0.43103,-0.0394 -1.25578,0.49409 -2.48047,1.71876 -2.12488,2.12486 -6.07812,9.30498 -6.07812,11.03906 0,2.42029 1.88961,0.63806 5.76172,-5.43555 2.78939,-4.37532 3.74515,-7.23567 2.79687,-7.32227 z m 3.69141,0.80079 c -0.60606,0.003 -6.66925,10.66838 -8.11523,14.27539 -0.20084,0.50103 0.47416,0.75157 1.5,0.55468 3.30995,-0.6353 9.64845,-14.84507 6.61523,-14.83007 z m 4.14844,1.28906 c -0.38897,-0.039 -0.67514,0.37237 -0.98828,1.28906 -1.6901,4.94763 -6.8489,15.53706 -8.0586,16.54102 -0.74341,0.61697 -1.35156,2.00354 -1.35156,3.08203 0,3.14895 2.21234,1.60436 6.20508,-4.33399 4.40301,-6.54853 6.81965,-14.24675 5.0332,-16.0332 -0.33653,-0.33653 -0.60646,-0.52155 -0.83984,-0.54492 z m -25.81446,17.68555 c -0.63835,0.0115 -2.03788,1.14425 -3.42578,3.02148 -2.70248,3.6553 -4.1582,3.83034 -4.1582,0.5 0,-2.95385 -1.54812,-3.3381 -2.27344,-0.56445 -0.70909,2.71154 1.92949,6.06445 4.77149,6.06445 1.31135,0 2.66203,0.45 3.00195,1 0.33992,0.55 1.60355,1.00762 2.80859,1.01562 3.85202,0.0269 5.07265,1.3925 3.66993,4.10743 -1.59906,3.09495 -5.0633,6.87695 -6.29883,6.87695 -0.53444,0 0.21851,-1.10438 1.67383,-2.45312 2.41992,-2.24273 3.47459,-4.54688 2.08007,-4.54688 -0.3117,0 -2.04103,1.125 -3.84375,2.5 -1.80272,1.375 -3.6336,2.5 -4.06836,2.5 -0.43476,0 0.42567,-0.95814 1.91407,-2.12891 1.85486,-1.45903 2.38298,-2.45295 1.67773,-3.1582 -0.70525,-0.70525 -1.51314,-0.62543 -2.57031,0.25195 -1.30745,1.08508 -1.54297,0.95737 -1.54297,-0.84179 0,-2.81055 -0.39335,-2.72298 -6.38086,1.41992 -4.07132,2.81705 -4.45376,2.9543 -1.86914,0.67578 3.0993,-2.73223 4.23623,-5.21875 2.38672,-5.21875 -0.47437,0 -2.56046,1.35 -4.63672,3 -2.07626,1.65 -4.22294,3 -4.77148,3 -0.54855,0 0.18992,-0.93547 1.64257,-2.07812 1.45265,-1.14268 3.1075,-2.94817 3.67774,-4.01368 1.82786,-3.41538 -1.56287,-3.39127 -5.15039,0.0371 -4.18839,4.00265 -7.39528,4.82132 -9.92578,2.53125 -1.8665,-1.68916 -2.1972,-1.64964 -8.08399,0.99219 -3.37579,1.51497 -7.88122,2.98937 -10.01367,3.27539 l -3.87695,0.51953 0.625,-3.13086 c 0.96541,-4.82703 -1.78505,-3.98942 -5.3086,1.61719 -4.67442,7.43785 -11.06914,14.98038 -20.56445,24.25781 -4.8125,4.70206 -8.75,9.09971 -8.75,9.77149 0,1.78885 2.41154,1.49564 6.88477,-0.83594 3.8253,-1.99385 7.06065,-2.62004 25.20703,-4.88281 8.33203,-1.03896 19.26904,-4.20471 25.4082,-7.35352 1.65,-0.8463 6.01235,-1.98189 9.69336,-2.52344 13.72714,-2.01953 25.94281,-10.58512 29.80078,-20.89648 2.41326,-6.45002 2.32152,-10.61501 -0.24414,-11.10156 -1.04234,-0.19768 -1.75,0.27968 -1.75,1.18164 0,0.83287 -0.49861,1.82295 -1.10742,2.19922 -0.7696,0.47563 -0.89713,-0.26869 -0.41992,-2.44141 0.9094,-4.14045 -1.34593,-4.21368 -3.67578,-0.11914 -2.02279,3.55477 -4.26904,4.07297 -3.22657,0.74414 0.38754,-1.2375 0.91546,-2.8125 1.17383,-3.5 0.33133,-0.88166 0.22286,-1.2784 -0.16016,-1.27148 z m -7.97656,16.33007 c 0.22279,-0.002 0.19949,0.19388 -0.043,0.58594 -0.372,0.60192 -1.60449,1.59139 -2.74023,2.19922 -1.47951,0.79187 -1.87329,0.79594 -1.38867,0.0117 0.372,-0.60192 1.60449,-1.59139 2.74023,-2.19922 0.73976,-0.39594 1.20885,-0.59593 1.43164,-0.59766 z m -26.55273,0.41993 c 1.91046,-0.0993 4.09557,1.08138 9.94531,4.23437 1.925,1.03757 6.5375,2.41184 10.25,3.05273 3.7125,0.64092 6.75,1.54117 6.75,2.00196 0,1.03168 -10.33701,4.98242 -13.03711,4.98242 -2.10451,0 -2.63447,-1.46603 -0.91406,-2.5293 0.7157,-0.44233 0.67358,-1.10061 -0.13281,-2.07226 -0.98841,-1.19096 -1.95214,-0.7034 -5.89258,2.98242 -7.63706,7.14357 -14.92299,9.96214 -30.02344,11.61719 -5.225,0.57268 -10.9625,1.30762 -12.75,1.63281 -1.98222,0.36061 -3.25,0.18086 -3.25,-0.46094 0,-1.95246 2.4708,-2.61751 8.57812,-2.31054 4.50741,0.22653 8.07782,-0.36531 13.8086,-2.28907 13.56206,-4.55264 25.87214,-11.71184 23.76367,-13.82031 -0.69261,-0.69261 -3.84699,0.43504 -9.83594,3.51953 -10.16097,5.23321 -20.08247,8.69673 -25.52929,8.91016 -4.72334,0.18508 -5.06699,-0.15586 -2.96289,-2.94531 1.44808,-1.91976 2.14003,-2.1064 4.89453,-1.31641 4.20564,1.20616 11.10864,-0.62435 21.9414,-5.82227 5.1329,-2.46294 8.3418,-4.59755 8.3418,-5.54882 0,-2.15826 -0.72274,-2.00568 -9.31641,1.96484 C 319.98885,269.06691 308,271.3533 308,269.26562 c 0,-2.09998 3.51536,-3.80157 10.18164,-4.92578 3.78112,-0.63766 8.72977,-2.07696 10.99805,-3.19922 1.68074,-0.83156 2.72872,-1.35253 3.875,-1.4121 z m 7.04687,30.47656 c 0.3378,-0.005 0.72467,0.0512 1.16016,0.16797 1.23082,0.32989 3.27078,0.60528 4.5332,0.61328 2.06687,0.0123 2.23219,0.35264 1.6582,3.41211 -0.44166,2.35429 -0.0271,4.77783 1.35157,7.89453 l 1.99023,4.49805 -3.02148,0.60351 c -5.11926,1.02385 -5.35408,0.81985 -7.74219,-6.79492 -2.27389,-7.25056 -2.29425,-10.35677 0.0703,-10.39453 z" />
  </g>
</svg>
